<?xml version="1.0" encoding="UTF-8"?>
<svg id="Layer_2" data-name="Layer 2" xmlns="http://www.w3.org/2000/svg" viewBox="0 0 16 9">
  <defs>
    <style>
      .cls-1 {
        fill: #fff;
      }
    </style>
  </defs>
  <g id="soundcloud">
    <path class="cls-1" d="M13.5,4c-.18,0-.35.02-.52.05C12.75,1.75,10.81,0,8.5,0c-.28,0-.5.22-.5.5v8c0,.28.22.5.5.5h5c1.38,0,2.5-1.12,2.5-2.5s-1.12-2.5-2.5-2.5ZM6.5,1c-.28,0-.5.22-.5.5v7c0,.28.22.5.5.5s.5-.22.5-.5V1.5c0-.28-.22-.5-.5-.5ZM4.5,3c-.28,0-.5.22-.5.5v5c0,.28.22.5.5.5s.5-.22.5-.5V3.5c0-.28-.22-.5-.5-.5ZM2.5,3c-.28,0-.5.22-.5.5v5c0,.28.22.5.5.5s.5-.22.5-.5V3.5c0-.28-.22-.5-.5-.5ZM.5,4.5c-.28,0-.5.22-.5.5v3c0,.28.22.5.5.5s.5-.22.5-.5v-3c0-.28-.22-.5-.5-.5Z"/>
  </g>
</svg>